                                    <svg
                                        id="Layer_1"
                                        data-name="Layer 1"
                                        xmlns="http://www.w3.org/2000/svg"
                                        viewBox="0 0 364.23 57.68"
                                    >
                                        <path
                                            d="M0,34.38c1.5-4,3.3-7.84,6.87-10.59,6.58-5.07,18.84-5.26,25.32-.22,4.17,3.25,4,5.69-.47,8.65-1.3.88-2.27.51-3.14-.72A36.29,36.29,0,0,0,25,26.78C19.66,21.43,12.11,23,9.27,29.87a17.3,17.3,0,0,0,1.8,17c3.44,5.17,8.82,5.5,14.26,4.68,2.4-.36,4.66-1.62,7-2.5.74-.29,1.44-.67,2.16-1l.62.44a10.89,10.89,0,0,1-1.17,2.59c-4.72,5.79-11.17,7.31-18.15,6.37C7.39,56.31,2.3,51.16.49,42.93A5.44,5.44,0,0,0,0,41.82Z"
                                        ></path>
                                        <path
                                            d="M174.72,25.39c3.44-1.72,6.6-3.79,10.08-4.87,2.39-.74,5.26-.42,7.84,0,3.07.47,3.85,1.49,6.23,5.76,1.72-1.25,3.37-2.63,5.18-3.74a16.84,16.84,0,0,1,13.16-2.05c3.46.83,5.59,3.08,5.93,6.51.41,4,.39,8.06.48,12.1.07,3.55,0,7.1.06,10.66,0,3.15.75,4,3.91,4.7a3.78,3.78,0,0,1,1.2.3A11.65,11.65,0,0,1,230.24,56c-.54.36-1.08,1-1.63,1-4.57.08-9.14.05-13.72.05a11.38,11.38,0,0,1-2.48-.05,6.14,6.14,0,0,1-1.69-1c.41-.44.74-1.07,1.25-1.27,3.81-1.58,3.84-1.56,3.83-5.53,0-5.53.07-11.06-.05-16.59-.14-6.8-3.8-9.21-10.19-6.65a21.94,21.94,0,0,0-5.23,3.27,3.65,3.65,0,0,0-1.07,2.55c-.1,5.69-.08,11.39,0,17.09,0,3.73,1.1,5,4.75,5.83a16.18,16.18,0,0,1,2.27.89l0,.82a12,12,0,0,1-2.63.64c-5.24.06-10.48.07-15.72,0-.74,0-1.48-.63-2.23-1,.63-.48,1.19-1.2,1.9-1.4,3.25-.91,4-1.58,4.05-5,0-6.36-.05-12.72-.34-19.07-.19-4.13-3.1-6.21-7.16-5.5a17.1,17.1,0,0,0-3.59,1c-5,2-5.71,3.17-5.69,8.43,0,4.87,0,9.74.08,14.61.05,3.93.55,4.48,4.23,5.57.63.18,1.1.92,1.64,1.4-.59.3-1.19.87-1.79.88-5.57.07-11.15.08-16.72,0-.62,0-1.24-.71-1.86-1.09.53-.4,1-1,1.58-1.18,4.88-1.19,5.14-1.41,5.24-6.49.08-4.87-.08-9.74.08-14.61.11-3.53-1.12-6-4.42-7.55a8.93,8.93,0,0,1-2-1.89,11.8,11.8,0,0,1,2.42-1.44c2.93-.91,5.92-1.61,8.85-2.51,2.06-.63,2.8.06,2.62,2.1C174.65,23.43,174.72,24.51,174.72,25.39Z"
                                        ></path>
                                        <path
                                            d="M311.73,57.41c-.08-1.72-.14-2.85-.21-4.44-.87.51-1.53.88-2.17,1.29-5.85,3.77-12,4.29-18.23,1.22S282,46.7,281.69,40c-.83-16.62,13.83-23.24,26.87-19.27.84.26,1.67.58,2.61.91,0-4,.42-7.81-.2-11.45-.27-1.58-2.71-2.79-4.17-4.17l-1.71-1.59a7.58,7.58,0,0,1,2-1.49c3-.93,6.07-1.7,9.12-2.51C319-.34,319.4,0,319.39,2.92q-.09,20.06-.22,40.13c0,1.07,0,2.15,0,3.22.15,3.35.91,4.21,4.15,5.3a8.74,8.74,0,0,1,2.17,1.6,9,9,0,0,1-2.18,1.32C319.6,55.5,315.84,56.39,311.73,57.41Zm-.27-17.32h-.21c0-2.47.12-5,0-7.41a9.68,9.68,0,0,0-7.46-9.07,9.83,9.83,0,0,0-11.25,4.3c-3.44,5.39-3.12,11.18-1.19,16.88,2.43,7.16,10,9.89,16.86,6.41,2.28-1.17,3.61-2.69,3.32-5.43A53.75,53.75,0,0,1,311.46,40.09Z"
                                        ></path>
                                        <path
                                            d="M54.3,24.8c3.88-1.67,7.63-3.48,11.54-4.87A11.8,11.8,0,0,1,71,19.7c5.45.67,8.13,3.61,8.24,9.07.14,6.52.09,13.05.12,19.57,0,4.42.58,5,4.88,6,.7.16,1.26,1,1.89,1.47a6.26,6.26,0,0,1-2,.84c-5.4.07-10.81.08-16.22,0-.71,0-1.41-.66-2.12-1,.59-.45,1.13-1.13,1.79-1.29,3.35-.83,4-1.47,4-4.89,0-5.94,0-11.89-.08-17.83-.08-5.37-2.73-7.74-8-6.58-2.82.62-5.48,2.2-8.05,3.62a3.59,3.59,0,0,0-1.15,2.73c-.09,6.11-.06,12.22,0,18.33,0,3.05.8,3.78,3.78,4.61a8,8,0,0,1,2.17,1.51,8.23,8.23,0,0,1-2.37.81c-5.32.07-10.64.08-16,0-.71,0-1.4-.69-2.09-1.06.6-.43,1.14-1.11,1.81-1.25,4.37-1,4.82-1.47,4.83-6,0-11.65,0-23.29.08-34.93,0-3.48-1.27-5.83-4.38-7.34-.73-.35-1.22-1.17-1.82-1.78a7.67,7.67,0,0,1,2-1.45C45.5,1.9,48.65,1.15,51.76.28c1.91-.54,2.73-.1,2.68,2.07-.13,6.77-.11,13.54-.14,20.31C54.29,23.52,54.3,24.39,54.3,24.8Z"
                                        ></path>
                                        <path
                                            d="M263.37,53.2c-.45.25-1,.47-1.41.77-6.11,4.07-12.52,4.7-19.06,1.28S234,45.88,233.78,39c-.5-14.09,13-23.08,27.06-18.17a20.4,20.4,0,0,1,4.08,1.8c1.8,1.14,3,1.15,3.69-1.12.06-.24.11-.55.29-.67.57-.39,1.19-.7,1.79-1,.27.56.77,1.11.78,1.67,0,1.4-.21,2.8-.21,4.2,0,6.68-.05,13.37,0,20.05,0,3.82.93,4.85,4.64,5.94a9.13,9.13,0,0,1,2,1.16c-.64.53-1.2,1.31-1.94,1.53-3,.92-6.07,1.67-9.11,2.47s-3.11.61-3.13-2.37a7.93,7.93,0,0,0-.08-1C263.61,53.45,263.53,53.39,263.37,53.2Zm.29-12.77h.12a85,85,0,0,0-.47-8.62A9.54,9.54,0,0,0,255,23.45a9.89,9.89,0,0,0-11,5.42c-2.5,4.74-2.29,9.69-1,14.68,2.21,8.25,10.36,11.54,17.81,7.28,1.9-1.09,3-2.37,2.8-4.72A53.77,53.77,0,0,1,263.66,40.43Z"
                                        ></path>
                                        <path
                                            d="M97.89,35.6c.45,6.76,2.24,12.38,8.81,14.93,6.17,2.38,11.84.46,17.16-3.15l.48.59a9.54,9.54,0,0,1-.81,2.23c-3.25,4.91-8.11,6.76-13.79,7.17-8.41.62-16.07-4.12-18.6-11.63C88,36.3,90.64,27,98.22,22.57a20.92,20.92,0,0,1,19.38-1.4,11.17,11.17,0,0,1,6.88,12c-.29,1.85-1.07,2.5-2.92,2.48-6.91-.07-13.81,0-20.72,0Zm.63-3.66c5.42,0,10.63,0,15.84,0,1.46,0,1.9-.65,1.84-1.95a7.7,7.7,0,0,0-6.08-6.61C104.39,22.61,99.72,26,98.52,31.94Z"
                                        ></path>
                                        <path
                                            d="M144.12,20.42H156c.1,3.24-.16,3.52-3.05,3.53s-5.62,0-8.45,0c0,8.47-.15,16.7.07,24.93.09,3.45,1.27,4.34,4.67,5.13a4.72,4.72,0,0,1,1.21.24c.77.42,1.48,1,2.21,1.43a7.85,7.85,0,0,1-2.48.93c-4.74.09-9.48,0-14.23,0-1.5,0-3,.07-4.49,0-.53,0-1-.57-1.54-.87.46-.48.84-1.12,1.4-1.4a8.9,8.9,0,0,1,2.17-.47,3.54,3.54,0,0,0,3.18-3.81q.06-11.52.09-23a3.36,3.36,0,0,0-2.91-3.72,13.87,13.87,0,0,1-2.64-.7c-.51-.23-.87-.82-1.3-1.25.49-.31.95-.84,1.47-.91,1.62-.22,3.78.32,4.75-.54s.78-3,1.1-4.64A18.71,18.71,0,0,1,161.65,1l1.19.37c3.93,1.36,4.71,5,1.53,7.81a3.27,3.27,0,0,1-2.82.2c-2.14-.87-4.13-2.11-6.23-3.1C150,3.72,145.6,5.9,144.7,11.67,144.27,14.41,144.32,17.23,144.12,20.42Z"
                                        ></path>
                                        <path
                                            d="M337.93,35.6c-1.09,11.29,9.09,18.9,19.54,14.95,1.39-.53,2.63-1.41,4-2a9.34,9.34,0,0,1,2.14-.43,6.13,6.13,0,0,1-.52,2.21c-3.31,4.64-8,6.65-13.62,7-8.62.59-16.33-4.3-18.82-12-2.95-9.16-.06-18.65,7.43-22.85,6.4-3.6,13.24-4.19,20-.87a11.09,11.09,0,0,1,6,11.51c-.24,1.87-1,2.53-2.9,2.51-6.89-.07-13.79,0-20.69,0Zm.22-3.66c5.42,0,10.65,0,15.89,0,1.5,0,1.84-.75,1.77-2a7.55,7.55,0,0,0-6.17-6.56C344,22.68,339.4,26,338.15,31.94Z"
                                        ></path>
                                    </svg>