                                    <svg
                                        width="150"
                                        height="29"
                                        viewBox="0 0 150 29"
                                        xmlns="http://www.w3.org/2000/svg"
                                    >
                                        <path
                                            fill-rule="evenodd"
                                            clip-rule="evenodd"
                                            d="M1.04487 13.1037H11.14C11.7172 13.1037 12.1849 12.636 12.1849 12.0588V1.96351C12.1849 1.38654 11.7172 0.918823 11.14 0.918823H1.04487C0.467911 0.918823 0 1.38654 0 1.96351V12.0588C0 12.636 0.467911 13.1037 1.04487 13.1037Z"
                                        ></path>
                                        <mask
                                            id="mask0_1130_78"
                                            style="mask-type: luminance"
                                            maskUnits="userSpaceOnUse"
                                            x="14"
                                            y="0"
                                            width="14"
                                            height="14"
                                        >
                                            <path
                                                d="M14.7061 0.498657H27.3111V13.1037H14.7061V0.498657Z"
                                            ></path>
                                        </mask>
                                        <g mask="url(#mask0_1130_78)">
                                            <path
                                                fill-rule="evenodd"
                                                clip-rule="evenodd"
                                                d="M21.0086 13.1037C24.4893 13.1037 27.3111 10.2819 27.3111 6.8012C27.3111 3.32047 24.4893 0.498657 21.0086 0.498657C17.5279 0.498657 14.7061 3.32047 14.7061 6.8012C14.7061 10.2819 17.5279 13.1037 21.0086 13.1037Z"
                                            ></path>
                                        </g>
                                        <mask
                                            id="mask1_1130_78"
                                            style="mask-type: luminance"
                                            maskUnits="userSpaceOnUse"
                                            x="0"
                                            y="15"
                                            width="13"
                                            height="14"
                                        >
                                            <path
                                                d="M0.42041 15.6248H12.6053V28.2298H0.42041V15.6248Z"
                                            ></path>
                                        </mask>
                                        <g mask="url(#mask1_1130_78)">
                                            <path
                                                fill-rule="evenodd"
                                                clip-rule="evenodd"
                                                d="M0.901067 15.6248H12.1247C12.3901 15.6248 12.6054 15.8526 12.6054 16.1338V21.7042C12.6054 25.3083 9.84643 28.2298 6.44309 28.2298C3.11684 28.2298 0.42041 25.3744 0.42041 21.852V16.1338C0.42041 15.8526 0.635677 15.6248 0.901067 15.6248Z"
                                            ></path>
                                        </g>
                                        <path
                                            fill-rule="evenodd"
                                            clip-rule="evenodd"
                                            d="M15.6066 15.6248H21.2283C24.5876 15.6248 27.3109 18.442 27.3109 21.9173C27.3109 25.4036 24.5789 28.2298 21.2088 28.2298H21.0885C17.7955 28.2298 15.126 25.4682 15.126 22.0616V16.1219C15.126 15.8473 15.3413 15.6248 15.6066 15.6248Z"
                                        ></path>
                                        <path
                                            fill-rule="evenodd"
                                            clip-rule="evenodd"
                                            d="M83.8237 26.1289C77.9157 26.1289 73.1094 21.2537 73.1094 15.2611V5.22267C73.1094 3.77388 74.2672 2.59949 75.6953 2.59949C77.1236 2.59949 78.2815 3.77388 78.2815 5.22267V15.2611C78.2815 18.361 80.7676 20.8827 83.8237 20.8827C86.8798 20.8827 89.3659 18.361 89.3659 15.2611V5.22267C89.3659 3.77388 90.5237 2.59949 91.9518 2.59949C93.3801 2.59949 94.5379 3.77388 94.5379 5.22267V15.2611C94.5379 21.2537 89.7316 26.1289 83.8237 26.1289Z"
                                        ></path>
                                        <path
                                            fill-rule="evenodd"
                                            clip-rule="evenodd"
                                            d="M62.12 26.1289C60.6917 26.1289 59.534 24.9545 59.534 23.5059V13.4673C59.534 10.3676 57.0477 7.84565 53.9916 7.84565C50.9357 7.84565 48.4494 10.3676 48.4494 13.4673V23.5059C48.4494 24.9545 47.2916 26.1289 45.8633 26.1289C44.4352 26.1289 43.2773 24.9545 43.2773 23.5059V13.4673C43.2773 7.4749 48.0837 2.59949 53.9916 2.59949C59.8996 2.59949 64.7059 7.4749 64.7059 13.4673V23.5059C64.7059 24.9545 63.5483 26.1289 62.12 26.1289Z"
                                        ></path>
                                        <path
                                            fill-rule="evenodd"
                                            clip-rule="evenodd"
                                            d="M111.59 26.1289C110.847 26.1289 109.812 25.8382 109.103 24.453L100.657 6.5324C100.369 5.91828 100.343 5.27493 100.58 4.67056C100.812 4.07715 101.259 3.61753 101.908 3.30509C102.268 3.11568 102.641 3.01965 103.018 3.01965C103.272 3.01965 103.53 3.06391 103.782 3.151C104.406 3.3664 104.883 3.78136 105.2 4.38451L105.208 4.39974L111.543 18.1476L117.812 4.40096L117.821 4.38451C118.14 3.7773 118.634 3.36112 119.289 3.14755C119.549 3.06269 119.815 3.01965 120.081 3.01965C120.472 3.01965 120.866 3.11243 121.252 3.29555C121.893 3.58464 122.329 4.04812 122.549 4.673C122.766 5.2928 122.731 5.91767 122.444 6.53057L114.007 24.4339C113.376 25.8331 112.344 26.1289 111.59 26.1289Z"
                                        ></path>
                                        <mask
                                            id="mask2_1130_78"
                                            style="mask-type: luminance"
                                            maskUnits="userSpaceOnUse"
                                            x="126"
                                            y="2"
                                            width="24"
                                            height="25"
                                        >
                                            <path
                                                d="M126.891 2.59949H150V26.1289H126.891V2.59949Z"
                                            ></path>
                                        </mask>
                                        <g mask="url(#mask2_1130_78)">
                                            <path
                                                fill-rule="evenodd"
                                                clip-rule="evenodd"
                                                d="M138.465 7.50989C137.217 7.50989 136.103 7.80197 135.155 8.37761C134.204 8.95427 133.444 9.76617 132.896 10.7912C132.343 11.8235 132.063 13.0323 132.063 14.3841C132.063 15.7353 132.343 16.9363 132.894 17.954C133.443 18.9671 134.203 19.7733 135.155 20.3506C136.103 20.9264 137.217 21.2183 138.465 21.2183C139.712 21.2183 140.826 20.9264 141.775 20.3506C142.725 19.7741 143.478 18.9695 144.013 17.9595C144.553 16.9396 144.827 15.7367 144.827 14.3841C144.827 13.0308 144.553 11.8203 144.011 10.7859C143.476 9.76374 142.724 8.95346 141.775 8.37761C140.826 7.80197 139.712 7.50989 138.465 7.50989ZM138.465 26.1289C136.222 26.1289 134.209 25.6215 132.482 24.621C130.751 23.6195 129.371 22.2169 128.38 20.4525C127.392 18.6935 126.891 16.6517 126.891 14.3841C126.891 12.0907 127.392 10.0355 128.381 8.27552C129.371 6.51185 130.751 5.10949 132.482 4.10719C134.21 3.10672 136.223 2.59949 138.465 2.59949C140.68 2.59949 142.68 3.10672 144.409 4.10719C146.139 5.10949 147.519 6.51185 148.51 8.27531C149.499 10.0367 150 12.0919 150 14.3841C150 16.6495 149.506 18.69 148.532 20.4492C147.553 22.2153 146.18 23.6189 144.448 24.621C142.72 25.6217 140.707 26.1289 138.465 26.1289Z"
                                            ></path>
                                        </g>
                                    </svg>                                    <svg
                                        width="150"
                                        height="29"
                                        viewBox="0 0 150 29"
                                        xmlns="http://www.w3.org/2000/svg"
                                    >
                                        <path
                                            fill-rule="evenodd"
                                            clip-rule="evenodd"
                                            d="M1.04487 13.1037H11.14C11.7172 13.1037 12.1849 12.636 12.1849 12.0588V1.96351C12.1849 1.38654 11.7172 0.918823 11.14 0.918823H1.04487C0.467911 0.918823 0 1.38654 0 1.96351V12.0588C0 12.636 0.467911 13.1037 1.04487 13.1037Z"
                                        ></path>
                                        <mask
                                            id="mask0_1130_78"
                                            style="mask-type: luminance"
                                            maskUnits="userSpaceOnUse"
                                            x="14"
                                            y="0"
                                            width="14"
                                            height="14"
                                        >
                                            <path
                                                d="M14.7061 0.498657H27.3111V13.1037H14.7061V0.498657Z"
                                            ></path>
                                        </mask>
                                        <g mask="url(#mask0_1130_78)">
                                            <path
                                                fill-rule="evenodd"
                                                clip-rule="evenodd"
                                                d="M21.0086 13.1037C24.4893 13.1037 27.3111 10.2819 27.3111 6.8012C27.3111 3.32047 24.4893 0.498657 21.0086 0.498657C17.5279 0.498657 14.7061 3.32047 14.7061 6.8012C14.7061 10.2819 17.5279 13.1037 21.0086 13.1037Z"
                                            ></path>
                                        </g>
                                        <mask
                                            id="mask1_1130_78"
                                            style="mask-type: luminance"
                                            maskUnits="userSpaceOnUse"
                                            x="0"
                                            y="15"
                                            width="13"
                                            height="14"
                                        >
                                            <path
                                                d="M0.42041 15.6248H12.6053V28.2298H0.42041V15.6248Z"
                                            ></path>
                                        </mask>
                                        <g mask="url(#mask1_1130_78)">
                                            <path
                                                fill-rule="evenodd"
                                                clip-rule="evenodd"
                                                d="M0.901067 15.6248H12.1247C12.3901 15.6248 12.6054 15.8526 12.6054 16.1338V21.7042C12.6054 25.3083 9.84643 28.2298 6.44309 28.2298C3.11684 28.2298 0.42041 25.3744 0.42041 21.852V16.1338C0.42041 15.8526 0.635677 15.6248 0.901067 15.6248Z"
                                            ></path>
                                        </g>
                                        <path
                                            fill-rule="evenodd"
                                            clip-rule="evenodd"
                                            d="M15.6066 15.6248H21.2283C24.5876 15.6248 27.3109 18.442 27.3109 21.9173C27.3109 25.4036 24.5789 28.2298 21.2088 28.2298H21.0885C17.7955 28.2298 15.126 25.4682 15.126 22.0616V16.1219C15.126 15.8473 15.3413 15.6248 15.6066 15.6248Z"
                                        ></path>
                                        <path
                                            fill-rule="evenodd"
                                            clip-rule="evenodd"
                                            d="M83.8237 26.1289C77.9157 26.1289 73.1094 21.2537 73.1094 15.2611V5.22267C73.1094 3.77388 74.2672 2.59949 75.6953 2.59949C77.1236 2.59949 78.2815 3.77388 78.2815 5.22267V15.2611C78.2815 18.361 80.7676 20.8827 83.8237 20.8827C86.8798 20.8827 89.3659 18.361 89.3659 15.2611V5.22267C89.3659 3.77388 90.5237 2.59949 91.9518 2.59949C93.3801 2.59949 94.5379 3.77388 94.5379 5.22267V15.2611C94.5379 21.2537 89.7316 26.1289 83.8237 26.1289Z"
                                        ></path>
                                        <path
                                            fill-rule="evenodd"
                                            clip-rule="evenodd"
                                            d="M62.12 26.1289C60.6917 26.1289 59.534 24.9545 59.534 23.5059V13.4673C59.534 10.3676 57.0477 7.84565 53.9916 7.84565C50.9357 7.84565 48.4494 10.3676 48.4494 13.4673V23.5059C48.4494 24.9545 47.2916 26.1289 45.8633 26.1289C44.4352 26.1289 43.2773 24.9545 43.2773 23.5059V13.4673C43.2773 7.4749 48.0837 2.59949 53.9916 2.59949C59.8996 2.59949 64.7059 7.4749 64.7059 13.4673V23.5059C64.7059 24.9545 63.5483 26.1289 62.12 26.1289Z"
                                        ></path>
                                        <path
                                            fill-rule="evenodd"
                                            clip-rule="evenodd"
                                            d="M111.59 26.1289C110.847 26.1289 109.812 25.8382 109.103 24.453L100.657 6.5324C100.369 5.91828 100.343 5.27493 100.58 4.67056C100.812 4.07715 101.259 3.61753 101.908 3.30509C102.268 3.11568 102.641 3.01965 103.018 3.01965C103.272 3.01965 103.53 3.06391 103.782 3.151C104.406 3.3664 104.883 3.78136 105.2 4.38451L105.208 4.39974L111.543 18.1476L117.812 4.40096L117.821 4.38451C118.14 3.7773 118.634 3.36112 119.289 3.14755C119.549 3.06269 119.815 3.01965 120.081 3.01965C120.472 3.01965 120.866 3.11243 121.252 3.29555C121.893 3.58464 122.329 4.04812 122.549 4.673C122.766 5.2928 122.731 5.91767 122.444 6.53057L114.007 24.4339C113.376 25.8331 112.344 26.1289 111.59 26.1289Z"
                                        ></path>
                                        <mask
                                            id="mask2_1130_78"
                                            style="mask-type: luminance"
                                            maskUnits="userSpaceOnUse"
                                            x="126"
                                            y="2"
                                            width="24"
                                            height="25"
                                        >
                                            <path
                                                d="M126.891 2.59949H150V26.1289H126.891V2.59949Z"
                                            ></path>
                                        </mask>
                                        <g mask="url(#mask2_1130_78)">
                                            <path
                                                fill-rule="evenodd"
                                                clip-rule="evenodd"
                                                d="M138.465 7.50989C137.217 7.50989 136.103 7.80197 135.155 8.37761C134.204 8.95427 133.444 9.76617 132.896 10.7912C132.343 11.8235 132.063 13.0323 132.063 14.3841C132.063 15.7353 132.343 16.9363 132.894 17.954C133.443 18.9671 134.203 19.7733 135.155 20.3506C136.103 20.9264 137.217 21.2183 138.465 21.2183C139.712 21.2183 140.826 20.9264 141.775 20.3506C142.725 19.7741 143.478 18.9695 144.013 17.9595C144.553 16.9396 144.827 15.7367 144.827 14.3841C144.827 13.0308 144.553 11.8203 144.011 10.7859C143.476 9.76374 142.724 8.95346 141.775 8.37761C140.826 7.80197 139.712 7.50989 138.465 7.50989ZM138.465 26.1289C136.222 26.1289 134.209 25.6215 132.482 24.621C130.751 23.6195 129.371 22.2169 128.38 20.4525C127.392 18.6935 126.891 16.6517 126.891 14.3841C126.891 12.0907 127.392 10.0355 128.381 8.27552C129.371 6.51185 130.751 5.10949 132.482 4.10719C134.21 3.10672 136.223 2.59949 138.465 2.59949C140.68 2.59949 142.68 3.10672 144.409 4.10719C146.139 5.10949 147.519 6.51185 148.51 8.27531C149.499 10.0367 150 12.0919 150 14.3841C150 16.6495 149.506 18.69 148.532 20.4492C147.553 22.2153 146.18 23.6189 144.448 24.621C142.72 25.6217 140.707 26.1289 138.465 26.1289Z"
                                            ></path>
                                        </g>
                                    </svg>