                                    <svg
                                        id="Layer_1"
                                        data-name="Layer 1"
                                        xmlns="http://www.w3.org/2000/svg"
                                        viewBox="0 0 358.04 79.29"
                                    >
                                        <path
                                            d="M0,56.57c.31-1.24.62-2.48.92-3.72A34,34,0,0,1,8.1,38.92a10.39,10.39,0,0,1,6.81-3.45,105.79,105.79,0,0,1,15.91-.85c1.67,0,2.39,1,1.75,2.56-1.56,3.73-3.13,7.46-4.88,11.09-3.27,6.79-6.65,13.53-10,20.26A9.51,9.51,0,0,1,6,73.31a7.8,7.8,0,0,1-4.65-4.93C.86,67,.44,65.66,0,64.3Z"
                                        ></path>
                                        <path
                                            d="M308.81,0c0,.34,0,.67,0,1q0,21.65,0,43.3a17,17,0,0,0,.13,2c.35,2.89,2.41,4.18,5.41,3.5a22.43,22.43,0,0,0,3.47-1.39c0,1.15,0,2.41,0,3.67a17.84,17.84,0,0,1-.35,3.1,1.68,1.68,0,0,1-.88,1.13,16.51,16.51,0,0,1-12.13-.53,7.26,7.26,0,0,1-4.25-5.56,32.42,32.42,0,0,1-.56-5.47q-.06-22.38,0-44.77Z"
                                        ></path>
                                        <path
                                            d="M34,52.79c0-4.88,0-9.76,0-14.64a4.94,4.94,0,0,1,3.09-4.63C44.26,30.2,51.49,27,58.64,23.58A48.67,48.67,0,0,1,69.4,19.66a7.67,7.67,0,0,1,9.07,5.22c2.32,7.49,1.41,14.68-1.81,21.74-2.59,5.67-6.39,10.43-10.54,15a53.5,53.5,0,0,1-13.6,10.9A19.16,19.16,0,0,1,39.42,75a6.29,6.29,0,0,1-5.25-5.92c-.22-5.43-.37-10.86-.55-16.29Z"
                                        ></path>
                                        <path
                                            d="M129.4,38.35V1.3H137c1.1,0,1.23.13,1.24,1.2,0,1.32,0,2.64,0,4V54.84c0,1.48,0,1.5-1.48,1.5-1.79,0-3.57,0-5.36,0a1.94,1.94,0,0,1-1.87-1.05q-12-19.38-24-38.74a1.85,1.85,0,0,0-.64-.64V56.21h-9V1.3c2.55,0,5,.13,7.51,0a3.74,3.74,0,0,1,3.89,2.13c7,11.33,14,22.58,21,33.85.26.41.54.8.82,1.19Z"
                                        ></path>
                                        <path
                                            d="M222.94,22.32c.64-.72,1.2-1.39,1.81-2,4.13-4.34,9.18-5.8,14.87-4.18,4.9,1.39,7.52,5.15,8.19,10a72.68,72.68,0,0,1,.24,9.46q.1,9.81.18,19.62v.89h-9V55c0-7.64,0-15.29,0-22.93a22.15,22.15,0,0,0-.57-4.65c-.74-3.26-4-5.08-7.54-4.38A9,9,0,0,0,225.92,26a6.2,6.2,0,0,0-1.69,4.32c.07,8.23,0,16.46,0,24.69V56.2h-9v-1q0-12.26,0-24.5a10,10,0,0,0-1.3-5,5.29,5.29,0,0,0-5.18-2.71A8.66,8.66,0,0,0,201,27.81a4,4,0,0,0-.37,1.85c0,8.45,0,16.89,0,25.33v1.13h-8.91V16.54h4.78c1,0,2,0,3,0,.83,0,1.09.31,1.06,1.08-.05,1,0,2,0,3.17a14.23,14.23,0,0,1,11.79-5.23A11.66,11.66,0,0,1,222.94,22.32Z"
                                        ></path>
                                        <path
                                            d="M318.71,16.59c3,0,5.88,0,8.74,0,.71,0,.91.46,1.11,1,1.89,5.28,3.78,10.55,5.71,15.81,1.3,3.54,2.67,7,4,10.56.09.23.19.44.37.85.36-1,.68-1.73,1-2.52q4.45-12.4,8.89-24.82a1.4,1.4,0,0,1,1.54-1.1c2.61,0,5.22,0,8,0-.54,1.46-1,2.84-1.55,4.18q-8,19.86-16,39.71a25.7,25.7,0,0,1-5.73,8.81c-3.35,3.31-7.5,4.44-12.07,4.11a56.77,56.77,0,0,1-5.89-1c.26-2.69.49-5.12.73-7.67l1.83.74a8.83,8.83,0,0,0,11.95-4.54c.73-1.55,1.41-3.13,2.14-4.68a2.78,2.78,0,0,0,0-2.39Q327.53,39,321.66,24.25c-.86-2.13-1.69-4.27-2.53-6.41C319,17.48,318.88,17.1,318.71,16.59Z"
                                        ></path>
                                        <path
                                            d="M157.69,37.89c.41,4.42,1.84,8.16,5.72,10.57a13.44,13.44,0,0,0,8.33,1.76,17,17,0,0,0,9.69-3.49c.19,1.41.38,2.69.53,4,.1.85.19,1.71.21,2.56,0,1.44-.18,1.79-1.61,2.12-2.63.6-5.27,1.25-7.94,1.6a23.65,23.65,0,0,1-11.19-1c-7.29-2.6-11.41-7.81-12.63-15.36a26.27,26.27,0,0,1,1.11-13.86c3.06-8,9.86-11.69,18.09-11.2a14.94,14.94,0,0,1,9.3,3.5,14.44,14.44,0,0,1,4.48,7.65A28.79,28.79,0,0,1,182.61,37c-.07.77-.39.93-1.11.93q-11.34,0-22.7,0Zm.18-6.07h16.46c-.19-1.36-.27-2.66-.56-3.9a7.28,7.28,0,0,0-10.49-4.85C159.89,24.76,157.57,28.48,157.87,31.82Z"
                                        ></path>
                                        <path
                                            d="M290.85,37.84h-25c.43,6.8,4.07,11.52,10.57,12.32a18.17,18.17,0,0,0,12.49-2.75,4.74,4.74,0,0,1,.68-.3c.29,2.46.61,4.82.83,7.18a1.41,1.41,0,0,1-.62,1.15c-5.85,2-11.83,3.11-18,1.84a18.73,18.73,0,0,1-14.87-15.55,28.23,28.23,0,0,1,.67-13.27c2.1-6.92,6.74-10.95,13.87-12.24a17.16,17.16,0,0,1,11.19,1.53,13.82,13.82,0,0,1,7.65,11.41C290.62,32,290.67,34.83,290.85,37.84Zm-25-6h16.54c-.13-.91-.24-1.76-.36-2.61a8,8,0,0,0-2.93-5.63c-3.12-2.33-7.67-1.72-10.57,1.39C266.72,26.89,266.17,29.27,265.85,31.82Z"
                                        ></path>
                                        <path
                                            d="M53,.43a41.05,41.05,0,0,1,4.24.89A3.26,3.26,0,0,1,59.26,6a19.11,19.11,0,0,1-4,5.68Q46.13,21.45,37,31.16a32.46,32.46,0,0,1-2.41,2.28,2,2,0,0,1-3.09-.17q-4.55-4.83-9-9.7a3.46,3.46,0,0,1-.4-4.18C25.4,13.28,30.42,8.9,36.43,5.54c3.55-2,7.15-3.82,11.22-4.48C49.28.79,50.94.66,53,.43Z"
                                        ></path>
                                        <path
                                            d="M131.38,70.19c-.49.93-1,1.87-1.46,2.81-.72,1.38-1.39,2.8-2.18,4.14a2,2,0,0,1-1.23.89c-.25,0-.74-.51-.93-.88-1.1-2.32-2.15-4.67-3.42-7V79H120a6,6,0,0,1,0-.75l.21-11.59c0-.41-.12-.9.52-1s1.11-.12,1.43.52c.61,1.23,1.25,2.46,1.87,3.68l2.79,5.5.69-1.38c1.22-2.44,2.49-4.86,3.63-7.33a1.5,1.5,0,0,1,2.11-.91c.11,4.38.22,8.79.33,13.27h-1.91V70.27Z"
                                        ></path>
                                        <path
                                            d="M114.66,72.59l3.65,6c-1.35.76-2,.59-2.67-.48s-1.35-2.33-2.1-3.45a2.63,2.63,0,0,0-3.14-1v5.26h-1.91V65.49a12.89,12.89,0,0,1,6.69.87c2.07,1,2.18,4.26.3,5.69A8.07,8.07,0,0,1,114.66,72.59Zm-4.19-5.48V72c1.08-.19,2.09-.31,3-.57a2,2,0,0,0,1.39-2,2,2,0,0,0-1.51-1.87C112.45,67.3,111.48,67.23,110.47,67.11Z"
                                        ></path>
                                        <path
                                            d="M196.38,75.4c.52-1.69,1.08-3.38,1.56-5.09.18-.66.57-.66,1.09-.65s.91,0,1.1.64c.49,1.77,1.08,3.51,1.69,5.44a6.41,6.41,0,0,0,.31-.66c.45-1.49.88-3,1.33-4.49s.45-1.48,2.21-1.19c-.52,1.64-1,3.27-1.55,4.9-.39,1.25-.82,2.5-1.2,3.76-.16.55-.39,1-1,1s-.82-.52-1-1c-.58-1.74-1.15-3.48-1.73-5.22h-.26c-.22.63-.45,1.27-.64,1.91-.36,1.17-.66,2.36-1.07,3.51a.92.92,0,0,1-1.78.12c-1-2.92-1.93-5.87-2.88-8.81,0-.05,0-.12,0-.17,1.51-.19,1.66-.1,2.11,1.32q.75,2.37,1.48,4.72Z"
                                        ></path>
                                        <path
                                            d="M226.7,78.79H225V75c0-.77,0-1.54,0-2.3,0-1.31-.72-2.16-1.75-2.18a2.32,2.32,0,0,0-2.43,2.23c0,1.71,0,3.43,0,5.15v1H219V65.29h1.75v4.42c.84-.19,1.53-.37,2.23-.51,2.37-.5,3.83.7,3.82,3.12,0,2.08,0,4.17,0,6.25C226.79,78.63,226.75,78.68,226.7,78.79Z"
                                        ></path>
                                        <path
                                            d="M105.52,76.61c.58,1.55.44,2-1,2.34a7.22,7.22,0,0,1-6.18-.81,3.36,3.36,0,0,1-1.18-1.25,9.44,9.44,0,0,1,.06-8.74,5.77,5.77,0,0,1,7.54-2.3l1.23.56L105.5,68c-.66-.28-1.24-.55-1.84-.77a3.87,3.87,0,0,0-5.12,2.71,9.31,9.31,0,0,0-.18,4.54,4.1,4.1,0,0,0,5.82,2.83C104.62,77.1,105,76.86,105.52,76.61Z"
                                        ></path>
                                        <path
                                            d="M163.55,79c-.72,0-1.47.37-1.75-.66a4.2,4.2,0,0,1-3.67.78,2.69,2.69,0,0,1-2-2.24,2.77,2.77,0,0,1,1-2.78,6,6,0,0,1,3.49-1.25l1.06-.13c-.1-2-1.34-2.35-4.74-1.23-.66-1.38-.49-1.7,1-2.14a4.82,4.82,0,0,1,3.58,0,3.28,3.28,0,0,1,2.1,3.17C163.56,74.61,163.55,76.75,163.55,79Zm-1.8-5.16A24.6,24.6,0,0,0,158.83,75a1.71,1.71,0,0,0-.77,1.27,1.73,1.73,0,0,0,.83,1.27A2.15,2.15,0,0,0,161.73,76,13.36,13.36,0,0,0,161.75,73.79Z"
                                        ></path>
                                        <path
                                            d="M239.42,78.21a4.58,4.58,0,0,1-4,.83,2.53,2.53,0,0,1-1.85-2.28c0-2.45,0-4.9,0-7.41h1.77c0,2,0,4,0,6,0,1.47.58,2.22,1.8,2.26a2.2,2.2,0,0,0,2.33-2.29c0-2,0-3.92,0-5.86,1.6-.48,1.94-.25,2,1.33q0,3.49,0,7c0,.44.28,1-.46,1.21S239.67,79.08,239.42,78.21Z"
                                        ></path>
                                        <path
                                            d="M140.37,77.19c1.12.19,2.22.42,3.32.57a1.14,1.14,0,0,0,1.37-.83,1.23,1.23,0,0,0-.83-1.46c-.78-.36-1.57-.69-2.34-1.08a2.71,2.71,0,0,1-1.62-3,2.76,2.76,0,0,1,2.62-2.3,9.89,9.89,0,0,1,2.55.13c1.32.26,1.41.59.71,1.86-.87-.14-1.74-.29-2.62-.42-.53-.08-1.05-.1-1.25.59a1.1,1.1,0,0,0,.64,1.44c.8.38,1.61.75,2.41,1.14a2.57,2.57,0,0,1,1.75,2.63,2.61,2.61,0,0,1-2.29,2.61,12.6,12.6,0,0,1-3.47,0C140.06,79,139.93,78.54,140.37,77.19Z"
                                        ></path>
                                        <path
                                            d="M243.68,77.07c1.14.19,2.17.39,3.21.51a1.65,1.65,0,0,0,1-.29c.9-.52.91-1.34,0-1.84s-1.65-.81-2.49-1.2a2.51,2.51,0,0,1-1.68-2.58,2.64,2.64,0,0,1,2.07-2.41,5.3,5.3,0,0,1,3.6.15c.51.21.73.49.54,1.06s-.44.73-1,.56a6.76,6.76,0,0,0-2-.35,1.61,1.61,0,0,0-1.18.62,1.25,1.25,0,0,0,.41,1.11,17.63,17.63,0,0,0,2.49,1.36,2.64,2.64,0,0,1,1.84,2.67A2.56,2.56,0,0,1,248,79a8.61,8.61,0,0,1-2.91,0C243.16,78.59,243.33,78.36,243.68,77.07Z"
                                        ></path>
                                        <path
                                            d="M181.83,71.79A9,9,0,0,0,183.18,73a17.75,17.75,0,0,0,2.27,1,2.26,2.26,0,0,1,1.37,2.37,2.33,2.33,0,0,1-1.36,2.4,6.07,6.07,0,0,1-4.75,0c-.8-.3-.86-.8-.31-1.89a18.49,18.49,0,0,0,2.14.71,2.21,2.21,0,0,0,1.42-.12,2.17,2.17,0,0,0,1-1.13c.07-.24-.49-.79-.87-1-.79-.45-1.65-.79-2.49-1.17a2.33,2.33,0,0,1-1.54-2.28,2.44,2.44,0,0,1,1.54-2.4,5,5,0,0,1,4-.06c.44.17.87.34.6,1s-.45.85-1.09.59a8.93,8.93,0,0,0-.9-.17A2,2,0,0,0,181.83,71.79Z"
                                        ></path>
                                        <path
                                            d="M172.64,69.35l1.32-.06c.29-2,.54-2.31,2-2.39v2.42h2.56v1.41h-2.48v3.65c0,.55,0,1.1,0,1.66s-.16,1.36.57,1.59a6.84,6.84,0,0,0,1.94,0c.32.88,0,1.38-1.16,1.51-2.21.24-3.25-.63-3.31-2.85,0-1.81,0-3.62,0-5.43,0,0,0-.05-.1-.14l-1.32-.09Z"
                                        ></path>
                                        <path
                                            d="M149.89,70.76l-1.38-.06V69.45l1.28-.12c.17-1.81.5-2.24,1.89-2.42v2.52h2.76v1.38h-3c.14,2.17.24,4.21.46,6.23,0,.3.66.67,1.06.74a4.67,4.67,0,0,0,1.5-.2c0,1.59,0,1.64-1.5,1.64h-.55c-2,0-2.8-1-2.64-3,.13-1.62.12-3.25.16-4.87A4.84,4.84,0,0,0,149.89,70.76Z"
                                        ></path>
                                        <path
                                            d="M212.54,70.77l-1.35-.08V69.45l1.23-.14c.21-2,.41-2.21,1.88-2.36v2.39H217v1.45h-2.83c.17,2.21.29,4.27.51,6.33.06.61,1,.9,1.77.62a4,4,0,0,0,.55-.33c.15,1.56,0,1.76-1.54,1.8-2,.06-3.07-1.1-2.91-3.11.08-1,.1-2,.1-3C212.64,72.33,212.58,71.6,212.54,70.77Z"
                                        ></path>
                                        <path
                                            d="M168,78.89h-1.6V69.36c.74-.23,1.49-.49,1.72.75a3.92,3.92,0,0,1,3.25-1c.36,1.42.23,1.64-1.15,1.87A2.5,2.5,0,0,0,168,73.62C168,75.36,168,77.1,168,78.89Z"
                                        ></path>
                                        <path
                                            d="M207.26,78.89V69.34H209c0,.31,0,.63,0,1v7.18C209.07,79.12,209.07,79.12,207.26,78.89Z"
                                        ></path>
                                        <path
                                            d="M253.56,76.5a1.35,1.35,0,1,1-1.22,1.4A1.19,1.19,0,0,1,253.56,76.5Z"
                                        ></path>
                                        <path
                                            d="M208.22,67.82A1.15,1.15,0,0,1,207,66.64a1.2,1.2,0,0,1,1.14-1.29,1.12,1.12,0,0,1,1.18,1.21C209.3,67.28,209.07,67.81,208.22,67.82Z"
                                        ></path>
                                    </svg>