                                    <svg
                                        id="logo-1"
                                        data-name="Layer 1"
                                        xmlns="http://www.w3.org/2000/svg"
                                        xmlns:xlink="http://www.w3.org/1999/xlink"
                                        viewBox="0 0 150 40.73"
                                    >
                                        <defs>
                                            <clipPath id="clip-path">
                                                <rect
                                                    class="cls-1"
                                                    width="150"
                                                    height="40.73"
                                                ></rect>
                                            </clipPath>
                                        </defs>
                                        <g class="cls-2">
                                            <path
                                                class="cls-3"
                                                d="M54.31,20.84a32,32,0,0,1-2.78,2.95,6,6,0,0,1-6.71.86c-2.23-1-3-3.06-3-5.32-.08-3.38,0-6.76,0-10.14,0-2.09,0-2.13-2.14-2.28V5.61l5.94-.51c1-.09,1.3.51,1.3,1.44q0,5.93,0,11.85a14.12,14.12,0,0,0,.25,2.67,2.12,2.12,0,0,0,3.38,1.6c2-1.27,3.47-3,3.47-5.61V9.23c0-2.13,0-2.13-2.15-2.34l-.08-1.26c2.11-.18,4.16-.38,6.21-.53,1-.07,1.15.66,1.15,1.47v12.7c0,2.06.24,2.3,2.35,2.5.11.59.27,1.09-.6,1.37-1.65.54-3.27,1.19-4.91,1.78-1.44.52-2.13,0-1.93-1.55,0-.4.13-.8.17-1.21S54.26,21.35,54.31,20.84Z"
                                            ></path>
                                            <path
                                                class="cls-3"
                                                d="M120.4,21.56v1.21c-2,.77-3.89,1.55-5.83,2.24-1.19.42-1.67,0-1.67-1.24v-2a20.82,20.82,0,0,1-3,2.68,6.11,6.11,0,0,1-5.07.41,4.93,4.93,0,0,1-2.37-8.08,10.28,10.28,0,0,1,5-2.93c1.47-.48,3-.86,4.46-1.2.73-.17,1-.48.95-1.25-.09-.93-.1-1.86-.17-2.8s-.09-2-1.28-2.36A3,3,0,0,0,108,7.53c-.43.82-.55,1.81-1,2.61A4.56,4.56,0,0,1,105.33,12a1.76,1.76,0,0,1-2.39-.55,3.62,3.62,0,0,1-.21-2.51c.65-1.95,2.42-2.77,4.21-3.37a14,14,0,0,1,7.1-.42c2.69.52,3.9,2.08,3.94,5.17.06,2.86,0,5.71,0,8.56C118,21.16,118.13,21.3,120.4,21.56Zm-7.51-8.11c-1.46.63-2.65,1-3.71,1.63a5.09,5.09,0,0,0-2.62,5.46,2.5,2.5,0,0,0,1.59,2.28,2.41,2.41,0,0,0,1.5.1,2.47,2.47,0,0,0,1.29-.78,9.41,9.41,0,0,0,1.21-1.66C113.36,18.39,112.76,16.12,112.89,13.45Z"
                                            ></path>
                                            <path
                                                class="cls-3"
                                                d="M7.68,2.18a32.62,32.62,0,0,0-3.3,0c-1.26.13-1.81,1.17-2.24,2.19A1.49,1.49,0,0,1,0,5.39C.39,3.85.73,2.25,1.24.7,1.32.46,2.16.37,2.65.37,7.23.43,11.81.55,16.4.59c1.36,0,2.73-.17,4.33-.28-.45,1.72-.79,3.28-1.32,4.78-.11.32-.9.39-1.32.55-.18-.25-.25-.32-.25-.38,0-2.89-1.4-3.91-4.3-3.07a1,1,0,0,0-.35.34A1.14,1.14,0,0,0,13,3q0,9.29,0,18.58A1.34,1.34,0,0,0,14.19,23l1.63.34v1.19h-11v-1.1c2.84-.93,2.84-.93,2.84-4Z"
                                            ></path>
                                            <path
                                                class="cls-3"
                                                d="M67.91,15.55c.35,1.76.53,3.3,1,4.76a4.35,4.35,0,0,0,4,3.3,4.49,4.49,0,0,0,4.6-2.34,1.29,1.29,0,0,1,1.92-.63,7.42,7.42,0,0,1-.51,1.28A6.35,6.35,0,0,1,73.6,25c-6.18.36-10.44-3.35-10.69-9.38-.17-4,1-7.32,4.55-9.44C71.63,3.72,79.17,4.83,80.14,12c.36,2.54-.5,3.58-3,3.58Zm7.34-1.71A11.93,11.93,0,0,0,74.43,8a2.77,2.77,0,0,0-4.73-.55c-1.46,1.84-1.59,4-1.57,6.35Z"
                                            ></path>
                                            <path
                                                class="cls-3"
                                                d="M135.34,5.21c.11,1.84.21,3.45.32,5.11a1.39,1.39,0,0,1-2-.8,5.24,5.24,0,0,0-3.76-3.17,2.89,2.89,0,0,0-1.79.15,2.93,2.93,0,0,0-1.35,1.18,2.61,2.61,0,0,0-.22,1.78,2.64,2.64,0,0,0,.95,1.51,16.86,16.86,0,0,0,2.38,1.43c1.52.84,3.14,1.54,4.56,2.52a5.24,5.24,0,0,1,2.27,5.86A6.1,6.1,0,0,1,131.43,25a23.82,23.82,0,0,1-4.61-.75c-.91-.18-1.83-1.09-2.66.23-.12.2-.74.08-1.18.11-.09-.53-.2-1-.24-1.4-.11-1.25-.19-2.5-.28-3.77a1.45,1.45,0,0,1,2,.89,6.23,6.23,0,0,0,5.09,3.49,2.5,2.5,0,0,0,2.68-1.3,2.43,2.43,0,0,0-.23-3,10.3,10.3,0,0,0-2.4-1.81c-1.68-1-3.54-1.84-5.11-3a5.06,5.06,0,0,1-1.92-6,5.33,5.33,0,0,1,5.08-3.71,15.26,15.26,0,0,1,4.14.65c.76.18,1.41.55,2.1-.22C134.12,5.26,134.7,5.33,135.34,5.21Z"
                                            ></path>
                                            <path
                                                class="cls-3"
                                                d="M31.69,24.57H22c-.27-.77-.21-1.29.71-1.43,1.15-.18,1.57-.87,1.55-2.06-.07-3.34,0-6.68,0-10C24.25,9,24,8.78,22,8.62c-.3-.8-.14-1.24.78-1.56,1.56-.55,3.07-1.26,4.56-2s2.15-.3,2,1.37c-.09,1-.27,2.08-.46,3.48.54-.94.88-1.6,1.28-2.22,1.56-2.39,4.2-3.45,6.48-2.63a2.42,2.42,0,0,1,.9.5,2.62,2.62,0,0,1,.62.82,2.53,2.53,0,0,1,.06,2,2.28,2.28,0,0,1-3.38,1c-1.06-.61-2.05-1.45-3.34-.68a4.46,4.46,0,0,0-2.07,3.81c-.14,3,0,5.94,0,8.92a1.54,1.54,0,0,0,1.52,1.6C31.73,23.25,32,23.69,31.69,24.57Z"
                                            ></path>
                                            <path
                                                class="cls-3"
                                                d="M80.57,6.72V5.3h9.81c0,.46.07.84.1,1.31l-.71.14c-1.24.21-1.68.74-1.3,1.94.8,2.55,1.7,5.08,2.57,7.6a20.51,20.51,0,0,0,1.57,3.63c.34-1.08.7-2.16,1-3.25.69-2.21,1.36-4.43,2-6.64s.08-3.15-2.33-3.29a3,3,0,0,1-.53-.08V5.39h8.29V6.71c-2.49-.07-3.25,1.66-3.9,3.7-1.48,4.81-3.08,9.57-4.64,14.38H89.31q-2.57-7-5.14-14C84,10.16,83.73,9.6,83.52,9,83.07,7.64,82.29,6.65,80.57,6.72Z"
                                            ></path>
                                            <path
                                                class="cls-3"
                                                d="M143.5,0h2.26V5.29h4.12V6.78h-4.11V19.51c0,3.58.88,4.2,4.1,2.86.36,1-.16,1.57-1.05,1.95a7.33,7.33,0,0,1-4.64.42,4.5,4.5,0,0,1-3.47-4.6q-.11-5.92,0-11.85c0-1.15-.27-1.66-1.47-1.55-.2,0-.61-.39-.63-.64s.29-.75.48-.77C142.28,5.05,143.07,2.72,143.5,0Z"
                                            ></path>
                                            <path
                                                class="cls-3"
                                                d="M88.75,40.43H87.41V30.18c1.88-.43,1.89-.43,2.61,1.27.9,2.15,1.81,4.3,2.83,6.72,1-2.39,2-4.48,2.75-6.65.46-1.3,1.12-1.89,2.6-1.38V40.37c-.92.33-1.2,0-1.18-1a62.14,62.14,0,0,0-.24-7.22c-.15.3-.32.58-.44.88-.92,2.21-1.8,4.44-2.74,6.64-.14.32-.52.72-.77.71s-.63-.43-.76-.75c-.88-2.05-1.7-4.12-2.55-6.18a2.79,2.79,0,0,0-.76-1.12Z"
                                            ></path>
                                            <path
                                                class="cls-3"
                                                d="M129,40.42h-1.39V30.12a2,2,0,0,1,2.6,1c1.53,2.48,3.22,4.86,5,7.59V30.09l1.36-.1V40.37a1.92,1.92,0,0,1-2.52-1c-1.55-2.48-3.25-4.87-5.11-7.62Z"
                                            ></path>
                                            <path
                                                class="cls-3"
                                                d="M76.89,40.71a5.32,5.32,0,0,1-3.83-1.58,5.4,5.4,0,0,1-1.15-1.78,5.28,5.28,0,0,1-.36-2.08,5.34,5.34,0,0,1,5.53-5.54,5.25,5.25,0,0,1,5.43,5.59C82.49,38.55,80.24,40.71,76.89,40.71Zm4.2-5.44a4,4,0,0,0-4-4.33A4.11,4.11,0,0,0,73,35.13a4,4,0,0,0,.25,1.67,4.05,4.05,0,0,0,.89,1.44,4.24,4.24,0,0,0,1.4,1,4.09,4.09,0,0,0,1.66.32A4,4,0,0,0,81.09,35.27Z"
                                            ></path>
                                            <path
                                                class="cls-3"
                                                d="M123.3,40.37c-1.13.36-1.78,0-2-1-.24-1.3-1-1.68-2.28-1.5a4.09,4.09,0,0,1-1.21,0c-1.62-.24-2.71.2-3,2-.19,1-1,.63-1.78.61,1.5-3.4,2.93-6.7,4.41-10a.91.91,0,0,1,1.55-.09C120.45,33.67,121.86,37,123.3,40.37Zm-3.09-3.75-2-5c-.76,1.83-1.38,3.36-2.06,5Z"
                                            ></path>
                                            <path
                                                class="cls-3"
                                                d="M67.58,39a5.32,5.32,0,0,1-3.7,1.77A5.4,5.4,0,0,1,60,39.35a5.84,5.84,0,0,1-.23-8,5.22,5.22,0,0,1,1.71-1.19,5.27,5.27,0,0,1,4.1,0,5.19,5.19,0,0,1,1.73,1.15,4.41,4.41,0,0,1-.51.46l-.49.31c-2-1.53-4.09-1.44-5.53.23a4.75,4.75,0,0,0,0,6c1.59,1.65,3.64,1.63,5.75-.09Z"
                                            ></path>
                                            <path
                                                class="cls-3"
                                                d="M103.9,30c1.49,0,2.87-.06,4.23,0a2.57,2.57,0,0,1,2.65,2.61,2.63,2.63,0,0,1-2.31,3,10.6,10.6,0,0,1-1.69.13c-.51,0-1,0-1.64,0v4.56l-1.24.13Zm1.27,4.6c1,0,1.85.06,2.69,0a1.53,1.53,0,0,0,.59-.13,1.46,1.46,0,0,0,.5-.35,1.42,1.42,0,0,0,.32-.51,1.36,1.36,0,0,0,.1-.6,1.54,1.54,0,0,0-1.4-1.8,23.76,23.76,0,0,0-2.8,0Z"
                                            ></path>
                                            <path
                                                class="cls-3"
                                                d="M140.92,30.12a1.73,1.73,0,0,1,2.33,1c.62,1.19,1.4,2.28,2.21,3.59L147.84,31c.65-1,.65-1,2.16-.9-.67,1-1.22,2-1.92,2.95a7.91,7.91,0,0,0-2,6.39c.13.81-.14,1.3-1.13,1-.55-1.74.49-3.75-.85-5.46C143,33.44,142,31.78,140.92,30.12Z"
                                            ></path>
                                        </g>
                                    </svg>