                                    <svg
                                        width="150"
                                        height="19"
                                        viewBox="0 0 150 19"
                                        xmlns="http://www.w3.org/2000/svg"
                                    >
                                        <path
                                            d="M0.25 18.8643L8.3 0.989257H14.475L22.525 18.8643H18.175L16.475 15.0893H6.3L4.6 18.8643H0.25ZM7.75 11.8393H15.025L11.55 4.11426H11.225L7.75 11.8393ZM24.5283 18.8643V0.989257H28.5283V18.8643H24.5283ZM49.9637 18.9893C46.6637 18.9893 44.1387 18.2309 42.3887 16.7143C40.6387 15.1809 39.7637 12.9143 39.7637 9.91426C39.7637 6.93092 40.6387 4.67259 42.3887 3.13926C44.1387 1.60592 46.6637 0.847591 49.9637 0.864257L58.9637 0.914256V4.11426H50.2387C48.072 4.11426 46.4637 4.57259 45.4137 5.48926C44.3637 6.40592 43.8387 7.88092 43.8387 9.91426C43.8387 11.9476 44.3637 13.4309 45.4137 14.3643C46.4637 15.2809 48.072 15.7393 50.2387 15.7393H59.2137V18.9893H49.9637ZM60.2109 18.8643L68.2609 0.989257H74.4359L82.4859 18.8643H78.1359L76.4359 15.0893H66.2609L64.5609 18.8643H60.2109ZM67.7109 11.8393H74.9859L71.5109 4.11426H71.1859L67.7109 11.8393ZM83.9143 18.9893V15.7393L98.2893 15.7643C99.0226 15.7643 99.5809 15.5976 99.9643 15.2643C100.364 14.9143 100.564 14.3559 100.564 13.5893C100.564 12.8226 100.364 12.2726 99.9643 11.9393C99.5809 11.5893 99.0226 11.4143 98.2893 11.4143H89.3393C87.4893 11.4143 86.0476 10.9726 85.0143 10.0893C83.9976 9.18926 83.4893 7.87259 83.4893 6.13926C83.4893 4.40592 83.9976 3.09759 85.0143 2.21426C86.0476 1.31426 87.4893 0.864257 89.3393 0.864257H103.389V4.11426L89.7643 4.08926C89.0476 4.08926 88.4893 4.25592 88.0893 4.58926C87.6893 4.90592 87.4893 5.42259 87.4893 6.13926C87.4893 6.85592 87.6893 7.38092 88.0893 7.71426C88.4893 8.03092 89.0476 8.18926 89.7643 8.18926H98.7143C100.564 8.18926 101.998 8.64759 103.014 9.56426C104.048 10.4643 104.564 11.8059 104.564 13.5893C104.564 15.3559 104.048 16.6976 103.014 17.6143C101.998 18.5309 100.564 18.9893 98.7143 18.9893H83.9143ZM107.072 18.8643V0.989257H126.672V4.23926H111.072V8.18926H125.222V11.4393H111.072V15.6143H126.672V18.8643H107.072ZM128.836 18.9893V15.7393L143.211 15.7643C143.944 15.7643 144.503 15.5976 144.886 15.2643C145.286 14.9143 145.486 14.3559 145.486 13.5893C145.486 12.8226 145.286 12.2726 144.886 11.9393C144.503 11.5893 143.944 11.4143 143.211 11.4143H134.261C132.411 11.4143 130.969 10.9726 129.936 10.0893C128.919 9.18926 128.411 7.87259 128.411 6.13926C128.411 4.40592 128.919 3.09759 129.936 2.21426C130.969 1.31426 132.411 0.864257 134.261 0.864257H148.311V4.11426L134.686 4.08926C133.969 4.08926 133.411 4.25592 133.011 4.58926C132.611 4.90592 132.411 5.42259 132.411 6.13926C132.411 6.85592 132.611 7.38092 133.011 7.71426C133.411 8.03092 133.969 8.18926 134.686 8.18926H143.636C145.486 8.18926 146.919 8.64759 147.936 9.56426C148.969 10.4643 149.486 11.8059 149.486 13.5893C149.486 15.3559 148.969 16.6976 147.936 17.6143C146.919 18.5309 145.486 18.9893 143.636 18.9893H128.836Z"
                                        ></path>
                                    </svg>